<svg id="Layer_1" data-name="Layer 1" xmlns="http://www.w3.org/2000/svg" viewBox="0 0 281.81 198"><defs><style>.cls-1{fill:#958dc5;}.cls-2{fill:#4f4780;}.cls-3{fill:#938bc3;}.cls-4{fill:#7970b2;}.cls-5{fill:#928ac2;}.cls-6{fill:#1d366b;}.cls-7{fill:#a692c6;}.cls-8{fill:#94d7f2;}.cls-9{fill:#95daf5;}.cls-10{fill:#193469;}.cls-11{fill:#8178b6;}.cls-12{fill:#9087c1;}.cls-13{fill:#968ec6;}.cls-14{fill:#1a3469;}.cls-15{fill:#a591c5;}.cls-16{fill:#f9fcfe;}.cls-17{fill:#94d5f0;}.cls-18{fill:#545286;}.cls-19{fill:#23366b;}.cls-20{fill:#545386;}.cls-21{fill:#9289c2;}.cls-22{fill:#203469;}.cls-23{fill:#8f87c1;}.cls-24{fill:#948cc4;}.cls-25{fill:#9189c2;}.cls-26{fill:#877fbb;}.cls-27{fill:#24376c;}.cls-28{fill:#867ebb;}.cls-29{fill:#9088c1;}.cls-30{fill:#435184;}.cls-31{fill:#8f86c0;}.cls-32{fill:#938ac3;}.cls-33{fill:#565688;}</style></defs><path class="cls-1" d="M206.86,103.54a28.72,28.72,0,0,1,1.57,7.72c0,.42.1.84.14,1.27s.09.81.13,1.23.07.73.11,1.1a9.35,9.35,0,0,1-.47,3h1v3a16,16,0,0,1-9.4,1v1l-1.88.19c-1.8.19-3.56.49-5.34.83a31.44,31.44,0,0,1-6.12.47l-1.79.55a4.59,4.59,0,0,1-2.91.22,23.89,23.89,0,0,1-4.7-4.23l-.8.32a18.24,18.24,0,0,1-8.59,1.16l-1-.5,1.48,5.94,9.87-.19,3.34-.06,4.85-.09,1.6,0c2.44-.05,4.86-.13,7.29-.31l1.25-.08,2.28-.2c2.41-.19,2.41-.19,3.6.6a9.64,9.64,0,0,1,1.08,4.44c.08.63.15,1.27.23,1.92s.13,1.26.21,1.91c.16,1.15.33,2.31.49,3.46.09.67.17,1.34.25,2,.21,1.65.47,3.27.74,4.91q2.26,13.51,4.11,27.09c.05.36.09.73.14,1.1.14,1,.27,1.95.39,2.93q.35,2.3.78,4.59c.54,2.94,1,5.88,1.44,8.84.08.55.17,1.11.26,1.68.17,1.17.35,2.33.53,3.5q.39,2.66.8,5.29c1.45,9.6,1.45,9.6,2,14.22a94.27,94.27,0,0,0,1.77,9.86c2.38,10.48,2.38,10.48.79,13.49a27.4,27.4,0,0,1-4.1,4.31c-.67.85-1.31,1.72-2,2.6-1.33,1.79-1.33,1.79-3,2.35-1.46.1-2.9.19-4.36.26l-1.35.06-4.46.19-1.56.07c-11.51.48-23,.53-34.53.5h-8.42l-15.81,0-18.06,0-37-.05c-.06-5.68-.06-5.68.36-8.44.08-.53.15-1.06.23-1.61s.17-1.13.26-1.71c.19-1.28.37-2.56.55-3.83,0-.34.09-.67.14-1,.58-4.08,1-8.17,1.52-12.27,0-.39.09-.78.13-1.18.29-2.45.56-4.89.84-7.33.39-3.44.79-6.89,1.18-10.33.15-1.27.29-2.53.43-3.79q1.08-9.39,2.22-18.77,1-7.94,1.81-15.89c.11-1.1.23-2.19.35-3.28q.53-4.89,1-9.8l.33-3.07.39-3.79c.07-.57.13-1.13.19-1.72s.1-1,.16-1.49a24,24,0,0,1,1.22-4.39l4.94-.49.5-1.48q.48-1,1-2l.52-1.06a3.94,3.94,0,0,1,1-1.35c1.53,0,3.06-.06,4.59,0H111l4.42,0h3l7.35,0c.09-.35.18-.71.28-1.07,1.87-7.19,5.19-14.28,11.59-18.49l1.11-.65c.95-.5.95-.5,1.36-1.55a21.07,21.07,0,0,1,2.2-1.29l1.2-.68a3.2,3.2,0,0,1,2-.5v-1c5.66-.36,9.29.37,13.75,3.86a17.88,17.88,0,0,1,4,5.54v1h2l.49-1,1,.49.49-1.48v1l.89-.11a40.58,40.58,0,0,1,6-.39v1h1c.1-.47.1-.47.19-1s.2-.67.31-1l1-.49c.14-.55.28-1.1.43-1.67a5,5,0,0,1,1.05-1.79c4.07-1.64,8.78-2,13.1-2.5l3.67-.49,1.77-.23c2.14-.3,4.26-.69,6.38-1.1A10,10,0,0,1,206.86,103.54ZM147.53,107l.92.23a18.45,18.45,0,0,1,10.94,7.19l1-1.48-1-1.49h-1.48l-.12-.89c-.73-2.11-2.93-3-4.82-4C150.67,105.91,149.57,105.87,147.53,107Zm-4.7,2.94-1.13.26-1.09.26-1,.22a4.65,4.65,0,0,0-2.42,1.27l.49,1,2-1a15.71,15.71,0,0,1-1,2.47l-1.48.49a8.71,8.71,0,0,0-.9,2.33c-.16.47-.31,1-.46,1.44s-.31,1-.47,1.52-.32,1-.48,1.49a20.21,20.21,0,0,0-1.16,7.07c6.46,0,12.9-.08,19.35-.25l2.73-.07,6.6-.18c.72-2.23-.06-3.73-1-5.78-.16-.35-.32-.7-.48-1.07a25.94,25.94,0,0,0-7.92-10l-.5-1a13.85,13.85,0,0,0-2.62-.55l-1.45-.25A14.69,14.69,0,0,0,142.83,109.94Zm-7.17,4,.5,1Zm24.72,1,1,2-.49-2Zm5,1a7.49,7.49,0,0,0,.49,4,15,15,0,0,0,8.9-.5,12.3,12.3,0,0,0-1-4.45l-3.09-.06-1.74,0A6.47,6.47,0,0,0,165.33,115.9Zm-33.62,4c-.21.52-.41,1-.62,1.57s-.53,1.36-.81,2c-.13.34-.26.68-.4,1a21.74,21.74,0,0,1-2.13,4.26h3c.35-1.3.71-2.6,1.05-3.9.1-.37.2-.74.31-1.12.25-.95.44-1.92.62-2.89Zm69.71,9.39.49,1.48Zm-35.1,8.41.49,1h1v-1Z" transform="translate(-9.1 -51)"/><path class="cls-2" d="M206.86,103.54a28.72,28.72,0,0,1,1.57,7.72c0,.42.1.84.14,1.27s.09.81.13,1.23.07.73.11,1.1a9.35,9.35,0,0,1-.47,3h1v3a16,16,0,0,1-9.4,1v1l-1.88.19c-1.8.19-3.56.49-5.34.83a31.44,31.44,0,0,1-6.12.47l-1.79.55a4.59,4.59,0,0,1-2.91.22,23.89,23.89,0,0,1-4.7-4.23l-.8.32a18.24,18.24,0,0,1-8.59,1.16l-1-.5,1.48,5.94,9.87-.19,3.34-.06c6.65-.12,13.28-.31,19.92-.74.75,1.51.2,2.59-.19,4.2-.13.58-.27,1.15-.41,1.75a8.52,8.52,0,0,1-.89,2.45h-8.41l-2.84,0c-6,0-11.94.1-17.92.54v.49c-9,0-18,0-27-.18l-5.3-.08-4.14-.06-2.89,0-1.77,0-1.54,0a8.85,8.85,0,0,1-2.45-.36c-.89-.33-.89-.33-1.7.24-1.77.83-3.59.63-5.5.57l-1.28,0-2.67-.07c-1.36,0-2.72-.07-4.09-.09l-2.59-.07-1.24,0c-2.86-.09-2.86-.09-3.91-1l-.63-.73,1-2c.26-.52.51-1,.77-1.58.72-1.39.72-1.39,1.21-1.88,1.53,0,3.06-.06,4.59,0H111l4.42,0h3l7.35,0c.09-.35.18-.71.28-1.07,1.87-7.19,5.19-14.28,11.59-18.49l1.11-.65c.95-.5.95-.5,1.36-1.55a21.07,21.07,0,0,1,2.2-1.29l1.2-.68a3.2,3.2,0,0,1,2-.5v-1c5.66-.36,9.29.37,13.75,3.86a17.88,17.88,0,0,1,4,5.54v1h2l.49-1,1,.49.49-1.48v1l.89-.11a40.58,40.58,0,0,1,6-.39v1h1c.1-.47.1-.47.19-1s.2-.67.31-1l1-.49c.14-.55.28-1.1.43-1.67a5,5,0,0,1,1.05-1.79c4.07-1.64,8.78-2,13.1-2.5l3.67-.49,1.77-.23c2.14-.3,4.26-.69,6.38-1.1A10,10,0,0,1,206.86,103.54ZM147.53,107l.92.23a18.45,18.45,0,0,1,10.94,7.19l1-1.48-1-1.49h-1.48l-.12-.89c-.73-2.11-2.93-3-4.82-4C150.67,105.91,149.57,105.87,147.53,107Zm-4.7,2.94-1.13.26-1.09.26-1,.22a4.65,4.65,0,0,0-2.42,1.27l.49,1,2-1a15.71,15.71,0,0,1-1,2.47l-1.48.49a8.71,8.71,0,0,0-.9,2.33c-.16.47-.31,1-.46,1.44s-.31,1-.47,1.52-.32,1-.48,1.49a20.21,20.21,0,0,0-1.16,7.07c6.46,0,12.9-.08,19.35-.25l2.73-.07,6.6-.18c.72-2.23-.06-3.73-1-5.78-.16-.35-.32-.7-.48-1.07a25.94,25.94,0,0,0-7.92-10l-.5-1a13.85,13.85,0,0,0-2.62-.55l-1.45-.25A14.69,14.69,0,0,0,142.83,109.94Zm-7.17,4,.5,1Zm24.72,1,1,2-.49-2Zm5,1a7.49,7.49,0,0,0,.49,4,15,15,0,0,0,8.9-.5,12.3,12.3,0,0,0-1-4.45l-3.09-.06-1.74,0A6.47,6.47,0,0,0,165.33,115.9Zm-33.62,4c-.21.52-.41,1-.62,1.57s-.53,1.36-.81,2c-.13.34-.26.68-.4,1a21.74,21.74,0,0,1-2.13,4.26h3c.35-1.3.71-2.6,1.05-3.9.1-.37.2-.74.31-1.12.25-.95.44-1.92.62-2.89Z" transform="translate(-9.1 -51)"/><path class="cls-3" d="M139.62,145.07a13.22,13.22,0,0,1,2,3,4.45,4.45,0,0,0,3-1.49,24.4,24.4,0,0,1,2.44-.49,8.24,8.24,0,0,0,4-1.48c3.81-.28,3.81-.28,5.44,1a12.35,12.35,0,0,1,1,2.47c.3-.08.59-.16.91-.23a9.06,9.06,0,0,1,6.78.91,6,6,0,0,1,2.66,4.3c.28,2.68.5,5.27-.56,7.79a8.72,8.72,0,0,1-3.49,2.49,20.07,20.07,0,0,0-6.3,5l-1.19,1.06c-3,3-3.74,5.52-4,9.72,0,.45-.08.9-.13,1.36a10.61,10.61,0,0,0,.4,3.68,13.64,13.64,0,0,0,3.05,2.35c.91.61.91.61,1.4,2.1a22.11,22.11,0,0,1,.13,2.22l0,1.16a2.59,2.59,0,0,1-3.62,2.46l-1-.15A5.69,5.69,0,0,1,150,193a18,18,0,0,0-2.72-.25,6.41,6.41,0,0,1-4.2-1.24,3.23,3.23,0,0,0-2.65,1.26c-1.29,1.15-2.48.89-4.14.84a16.21,16.21,0,0,1-4.09-1.11l-1.85-.24c-1.61-.25-1.61-.25-2.6-1.24a4.75,4.75,0,0,1,.5-2.47,15.26,15.26,0,0,1,2.9-1.76c2.51-1.31,4-2.22,5-4.92.12-.43.23-.86.35-1.29a12.9,12.9,0,0,1,1.18-3.4c.63-3.7-1.43-6-3.46-8.9-.2-.43-.39-.86-.59-1.3-1.33-1.76-3-2.19-5.07-2.9-4.7-1.67-4.7-1.67-6.21-4.21a18,18,0,0,1,0-4c0-.42.08-.84.13-1.27.3-2.15.59-3.71,2.29-5.16,2.2-1.41,3.35-2.1,6-1.88a9.12,9.12,0,0,0,2.47-.1,5.85,5.85,0,0,0,2-2.47C136.78,144.27,137.91,144.63,139.62,145.07Z" transform="translate(-9.1 -51)"/><path class="cls-3" d="M177.69,195.5l.83,1c2,1.78,4.81,1.06,7.4.91,3.29-.12,3.29-.12,5.09.91a9.41,9.41,0,0,1,2.8,6.86,18.28,18.28,0,0,0,.44,4.05,36,36,0,0,1,.39,7.7l0,2.15c0,1,0,2.07,0,3.11,0,.62,0,1.24,0,1.88a4,4,0,0,1-1.12,2.76,10.94,10.94,0,0,1-4.55,1.8v4l.83.38,1.09.51,1.07.51c1,.58,1,.58,1.95,2.06a9.25,9.25,0,0,1-.49,2l-1.13.07-1.47.12-1.46.1a9.07,9.07,0,0,0-3.36,1.19,7.81,7.81,0,0,1-3,0l-1.08-1c-1.86-1.28-3.23-1-5.34-.65l-1,.15a21.88,21.88,0,0,0-5.38,1.52c-3.45.27-3.45.27-5.34-.76a8.41,8.41,0,0,0-5.1-.63l-1.8.14a10.39,10.39,0,0,0-3.58,1.25,6.13,6.13,0,0,1-4.91-1.76l-1-1.21a8.45,8.45,0,0,1,2.07-4.17c1.84-1,2.84-.8,4.85-.28l1.48,1a19.79,19.79,0,0,0,7.91,1c1.59-1.35,1.94-3.32,2.45-5.28a4.45,4.45,0,0,1,1.76-2.21c1.76-2,1.75-3.83,1.91-6.44,0-.48.07-1,.11-1.45a86.71,86.71,0,0,0,.11-9.4c0-.36,0-.73,0-1.1-.13-2-.3-3.43-1.84-4.77a5,5,0,0,0-2.32-.12l-1.21.05-.92.07a16.78,16.78,0,0,1-1.48-3,3.81,3.81,0,0,1,1-2,11.56,11.56,0,0,1,2.72-.78,68.42,68.42,0,0,0,7-1.92A8.89,8.89,0,0,1,177.69,195.5Z" transform="translate(-9.1 -51)"/><path class="cls-4" d="M201.91,127.27c1.41,1.41,1.29,2.59,1.51,4.55.08.63.16,1.27.24,1.93s.15,1.28.23,1.93c.16,1.15.33,2.31.49,3.46.09.67.17,1.34.25,2,.21,1.65.47,3.27.74,4.91q2.26,13.51,4.11,27.09l.14,1.1c.14,1,.27,1.95.39,2.93q.35,2.3.78,4.59c.54,2.94,1,5.88,1.44,8.84.08.55.17,1.11.26,1.68.17,1.17.35,2.33.53,3.5q.39,2.66.8,5.29c1.45,9.6,1.45,9.6,2,14.22a94.27,94.27,0,0,0,1.77,9.86c2.38,10.48,2.38,10.48.79,13.49a27.4,27.4,0,0,1-4.1,4.31c-.7.86-1.38,1.74-2,2.63l-1.42,1.82-1-.49c-.28-1.48-.51-2.94-.7-4.43-.06-.47-.13-.94-.19-1.42-.22-1.59-.43-3.18-.64-4.76-.14-1.14-.3-2.27-.45-3.4q-.61-4.64-1.22-9.27c-.34-2.58-.68-5.17-1-7.75q-1.54-11.71-3.08-23.46l-1-7.36c-.51-3.8-1-7.62-1.5-11.42l-.27-2c-.9-6.91-1.79-13.82-2.6-20.74-.05-.5-.11-1-.17-1.51q-.39-3.39-.77-6.78l-.27-2.32c0-.34-.07-.68-.1-1a11.81,11.81,0,0,0-1.37-4.55l5.43.49,1-4.45h1c-.09-.48-.18-1-.28-1.45l-.21-1.51Z" transform="translate(-9.1 -51)"/><path class="cls-5" d="M154.45,109a24.68,24.68,0,0,1,7.42,8.41c.25.44.5.87.77,1.32a38.45,38.45,0,0,1,4.17,17h3.95v.49c-9,0-18,0-27-.18l-5.3-.08-4.14-.06-2.89,0-1.77,0-1.54,0a8.85,8.85,0,0,1-2.45-.36c-.89-.33-.89-.33-1.7.24-1.77.83-3.59.63-5.5.57l-1.28,0-2.67-.07c-1.36,0-2.72-.07-4.09-.09l-2.59-.07-1.24,0c-2.86-.09-2.86-.09-3.91-1l-.63-.73,1-2c.26-.52.51-1,.77-1.58.72-1.39.72-1.39,1.21-1.88,1.53,0,3.06-.06,4.59,0H111l4.42,0h3l7.35,0c.09-.35.18-.71.28-1.07,2-7.66,5.63-15,12.65-19.14a5.17,5.17,0,0,0,1.91-1.55v1l.94-.34C146.35,106,150,106.58,154.45,109Zm-11.62,1-1.13.26-1.09.26-1,.22a4.65,4.65,0,0,0-2.42,1.27l.49,1,2-1a15.71,15.71,0,0,1-1,2.47l-1.48.49a8.71,8.71,0,0,0-.9,2.33c-.16.47-.31,1-.46,1.44s-.31,1-.47,1.52-.32,1-.48,1.49a20.21,20.21,0,0,0-1.16,7.07c6.46,0,12.9-.08,19.35-.25l2.73-.07,6.6-.18c.72-2.23-.06-3.73-1-5.78-.16-.35-.32-.7-.48-1.07a25.94,25.94,0,0,0-7.92-10l-.5-1a13.85,13.85,0,0,0-2.62-.55l-1.45-.25A14.69,14.69,0,0,0,142.83,109.94Zm-7.17,4,.5,1Zm-3.95,5.94c-.21.52-.41,1-.62,1.57s-.53,1.36-.81,2c-.13.34-.26.68-.4,1a21.74,21.74,0,0,1-2.13,4.26h3c.35-1.3.71-2.6,1.05-3.9.1-.37.2-.74.31-1.12.25-.95.44-1.92.62-2.89Z" transform="translate(-9.1 -51)"/><path class="cls-6" d="M40.36,205.1c1.12,1,1.21,1.78,1.37,3.25l2.47.5c.25,1,.25,1,.49,2h1a13.81,13.81,0,0,1,2,10.39,11.23,11.23,0,0,1-6.43,6.42,10.32,10.32,0,0,1-3.68.59l-1.13,0a7.69,7.69,0,0,1-3.1-1.1c-.7-.13-1.4-.24-2.1-.34-3.13-.66-5.06-2.51-7-5-1.77-2.93-1.69-6.18-1.29-9.5a12.75,12.75,0,0,1,5.93-7.42C32.67,203.19,36.73,202.8,40.36,205.1Z" transform="translate(-9.1 -51)"/><path class="cls-2" d="M139.62,111l.49,1c-1.19,2.32-1.19,2.32-2.47,3a15.18,15.18,0,0,0-.84,2.33c-.15.47-.3,1-.46,1.44l-.46,1.52c-.16.49-.32,1-.47,1.49a47.36,47.36,0,0,0-1.73,7.07l1.6-.1c5.8-.35,11.6-.54,17.41-.68l2.62-.06c6.2-.15,6.2-.15,8-.15a22.18,22.18,0,0,1,1,7.41c-4.64.43-9.22.56-13.87.55H137.52l-10.76,0c.07-.88.15-1.75.22-2.63,0-.49.08-1,.12-1.48a9.66,9.66,0,0,1,.65-2.81h3c.09-.52.19-1,.29-1.58.33-1.79.67-3.57,1-5.36.15-.81.29-1.62.43-2.44.51-2.76.51-2.76,1.64-3.85l1.08-.62c.41-.4.81-.81,1.23-1.23A23.18,23.18,0,0,1,139.62,111Z" transform="translate(-9.1 -51)"/><path class="cls-7" d="M279.47,159.25l3.14,0h3.82a3.54,3.54,0,0,1,2.43.85c1.71,2.49,1.15,5.82,1.15,8.7,0,.59,0,1.18,0,1.79v3.29a6.18,6.18,0,0,1-1.11,3.36c-2.12,1.06-4.95.58-7.31.58l-3.15,0h-3.84a4.25,4.25,0,0,1-3-1.11,27.61,27.61,0,0,1-.2-3.63V172c0-.76,0-1.52,0-2.28,0-1.16,0-2.32,0-3.49V164c0-.35,0-.7,0-1.06a17.93,17.93,0,0,1,.21-2.57C274,158.82,276.7,159.24,279.47,159.25Zm-3.4,5.1c0,1.38,0,2.75,0,4.17,0,.44,0,.87,0,1.32,0,1,0,1.95,0,2.92.9.9,2.13.56,3.33.56h2.24a4.22,4.22,0,0,0,3.33-.56c0-1.42,0-2.82,0-4.24s0-2.75,0-4.17Z" transform="translate(-9.1 -51)"/><path class="cls-8" d="M36.29,206.87c.67.31,1.32.64,2,1l1.45-.06c1.92.07,2.62.75,4,2l-1.48,1a11.12,11.12,0,0,0,.32,4.14c.33,2.39-1,4.31-2.3,6.24a9.41,9.41,0,0,1-5.93,2.47,12.85,12.85,0,0,1-8-5.35c-.83-2.31-.18-4.76.61-7a16.15,16.15,0,0,1,4-3.46C32.68,206.64,34.17,206.65,36.29,206.87Z" transform="translate(-9.1 -51)"/><path class="cls-3" d="M193,134.69a8.91,8.91,0,0,1,2,.49c1.17,1.75,1.3,3.23,1.51,5.26,0,.39.09.77.13,1.18.1.85.19,1.7.29,2.55q.39,3.54.81,7.08c.05.5.11,1,.17,1.51.67,5.75,1.41,11.48,2.15,17.21l.21,1.63c.44,3.35.87,6.69,1.31,10,.22,1.74.45,3.49.67,5.23,3.89,30.29,3.89,30.29,8.08,60.54l-2,.5A143.16,143.16,0,0,1,206,233.36c-1.15-10.1-2.52-20.16-3.9-30.22-1.45-10.66-2.9-21.32-4.16-32-.77-6.54-1.64-13.05-2.57-19.55l-.3-2c0-.33-.08-.66-.13-1-.4-2.87-.75-5.75-1.07-8.63A46.42,46.42,0,0,0,193,134.69Z" transform="translate(-9.1 -51)"/><path class="cls-7" d="M266,97.05c2.46.84,3.88,2.61,5.59,4.51a12,12,0,0,0,3.9-2.81c1.81-1.64,1.81-1.64,3.76-1.6l1.24.46a6,6,0,0,1,.49,3,21.78,21.78,0,0,1-2.59,3,9.86,9.86,0,0,0-1.86,2.93l.85.76c3,2.79,3,2.79,3.67,4.83-.07,1.33-.07,1.33-1.06,2.81a6.42,6.42,0,0,1-3,0,12.8,12.8,0,0,1-2.41-2.22l-1.17-1.26-.87-1a16.65,16.65,0,0,0-4.9,3.73,4,4,0,0,1-3.51.72,2.85,2.85,0,0,1-1.18-2.38c.25-2,.94-2.62,2.42-4l1.25-1.17,1-.87a9.38,9.38,0,0,0-2.77-3.65,4.91,4.91,0,0,1-2-3.43C263.34,97.55,264.13,97.14,266,97.05Z" transform="translate(-9.1 -51)"/><path class="cls-9" d="M19.48,146.06a28.07,28.07,0,0,1,4.14,3.8l1.12,1.08L25.79,152l1,1a2.65,2.65,0,0,1,.58,2.25c-.78,2.17-2.39,3.53-4,5.13l-1,1C20,163.8,20,163.8,18,164a16.59,16.59,0,0,1-5.08-4l-1-.93C9.2,156.3,9.2,156.3,9.1,154a7.45,7.45,0,0,1,1.59-2l1.06-1.06,1.11-1.08c.37-.36.73-.73,1.09-1.11C17.09,145.66,17.09,145.66,19.48,146.06Z" transform="translate(-9.1 -51)"/><path class="cls-10" d="M240,51.14a64.07,64.07,0,0,1,4.14,9.27c.14.35.27.71.41,1.07a8.76,8.76,0,0,1,.39,6,11.36,11.36,0,0,1-5.76,0L237.6,67l-1.6-.42-1.62-.4C229.6,65,229.6,65,227.62,63.5a2.49,2.49,0,0,1-.49-2,13.55,13.55,0,0,1,2.13-2.46l1.39-1.41.74-.71c.74-.73,1.46-1.47,2.19-2.21l1.4-1.39,1.29-1.28A4,4,0,0,1,240,51.14Zm-2.47,6.42c-.52.57-1,1.15-1.51,1.73l-.83,1-.63.75a8.06,8.06,0,0,0,5,1L238,57.56Z" transform="translate(-9.1 -51)"/><path class="cls-2" d="M151.42,206.75a20.66,20.66,0,0,1,2,1.11c.68.39.68.39,1.36.81a21.9,21.9,0,0,1,5.56,10.56,7.1,7.1,0,0,1-.49,2.47,6.66,6.66,0,0,1-2.48-.49,16.68,16.68,0,0,1-1.66-3c-2.15-4.3-4.36-6.9-9-8.51-3.74-1-6.73-.15-10.12,1.65-3.3,2.07-4.63,4.5-5.93,8.12a4.44,4.44,0,0,1-1.49,2.26,8.74,8.74,0,0,1-2-.49c-.82-3,.13-5.19,1.48-7.91C133.57,206.09,143.37,203.63,151.42,206.75Z" transform="translate(-9.1 -51)"/><path class="cls-2" d="M107,128.7h11.45l7.35,0-.21,2.14c0,.4-.09.79-.13,1.2a9.5,9.5,0,0,1-1.14,3.59,16.82,16.82,0,0,1-5.79.49l-1.28,0-2.68-.06-4.1-.07-2.6-.06-1.24,0c-2.88-.08-2.88-.08-3.93-1l-.63-.73,1-2,.77-1.58C104.76,128.76,104.76,128.76,107,128.7Z" transform="translate(-9.1 -51)"/><path class="cls-3" d="M186.09,185.12a4.25,4.25,0,0,1,3,1.48,16.36,16.36,0,0,1-1,7.42c-1.48,1-1.48,1-2.53.9l-1.15-.29c-.38-.08-.75-.17-1.14-.27a8.62,8.62,0,0,1-2.09-.84,12.37,12.37,0,0,0-3.47-1c-1.5-.27-3-.57-4.45-1-.24.42-.47.84-.72,1.27-1.26,1.21-1.26,1.21-3.24,1.21-.82-.15-1.65-.32-2.47-.5l-1.57-.3a18.61,18.61,0,0,1-4.36-1.18,6.1,6.1,0,0,1-1-2l.87-.27a26.43,26.43,0,0,0,5.06-2,9.12,9.12,0,0,1,5.93-.65c.68.82,1.34,1.64,2,2.48a10.58,10.58,0,0,0,3.46-.5l1.42.08a7.5,7.5,0,0,0,4.42-1.78l1.43-1A6.32,6.32,0,0,0,186.09,185.12Z" transform="translate(-9.1 -51)"/><path class="cls-9" d="M262.19,207.46c2.11.83,3.17,3.15,4.39,5l.92,1.29.85,1.26c.27.37.52.75.79,1.14a4.06,4.06,0,0,1,0,3.61c-2.09,1-4.85.58-7.14.58l-1.73,0h-3.19c-1.29-.12-1.29-.12-2.77-1.11.19-3,1.57-4.92,3.18-7.33l.75-1.15C260.53,207.3,260.53,207.3,262.19,207.46Zm-.95,5.84c-1.13,1.39-1.13,1.39-1,3h3.46a11.16,11.16,0,0,0-1-2.48Z" transform="translate(-9.1 -51)"/><path class="cls-9" d="M113.41,51.14a6.56,6.56,0,0,1,4,4A7.13,7.13,0,0,1,115.89,61a4.59,4.59,0,0,1-3.62,1.92A7,7,0,0,1,107,61.52c-1.58-1.79-1.77-3.55-1.7-5.86.35-1.73,1.33-2.49,2.69-3.54C109.81,50.9,111.29,50.87,113.41,51.14Zm-3,4-1,1a11.26,11.26,0,0,0,.49,2.47,10.91,10.91,0,0,0,2.48.5l1-1a10.21,10.21,0,0,0-.49-2.47A10.93,10.93,0,0,0,110.45,55.09Z" transform="translate(-9.1 -51)"/><path class="cls-11" d="M195,135.18l1.48.5c1.44,10.3,2.86,20.6,4.08,30.93,1.31,11,2.79,21.91,4.26,32.86.27,2,.54,4,.8,6,.06.39.11.79.17,1.19q1.08,8.12,2.13,16.24c.08.62.16,1.24.24,1.88.37,2.86.74,5.73,1.1,8.59.13,1,.26,2,.38,3,.06.44.12.88.17,1.33.4,3.08.93,6.13,1.51,9.18h-1.49q-3.78-27.22-7.31-54.49l-1-7.36q-.83-6.23-1.64-12.44c-.06-.5-.06-.5-.13-1-1.26-9.69-2.48-19.37-3.58-29.07,0-.4-.1-.8-.14-1.2-.09-.72-.17-1.45-.25-2.17A18.91,18.91,0,0,0,195,135.18Z" transform="translate(-9.1 -51)"/><path class="cls-7" d="M42.22,176.71a8.25,8.25,0,0,1,3.46,3.46c.27,2.23.3,3.93-.83,5.91-1.89,1.68-3,2-5.56,2-2.12-.34-3.18-1.32-4.45-3a5.79,5.79,0,0,1-.53-4.43A10.28,10.28,0,0,1,37.15,177,10.64,10.64,0,0,1,42.22,176.71Zm-3.95,4.45.49,2.47,2.47.5,1-2.47a13.85,13.85,0,0,0-1.48-1.49C39.59,180.08,39.59,180.08,38.27,181.16Z" transform="translate(-9.1 -51)"/><path class="cls-12" d="M195,135.68c1.39,1.39,1.32,2.84,1.51,4.71,0,.39.09.78.13,1.18.1.85.19,1.71.29,2.56.26,2.37.53,4.73.81,7.1.05.5.11,1,.17,1.52.66,5.75,1.41,11.49,2.15,17.22l.21,1.63c.44,3.35.87,6.69,1.31,10,.22,1.74.45,3.49.67,5.23,3.89,30.29,3.89,30.29,8.08,60.54h-1c-1.1-5.81-2-11.63-2.67-17.5-.31-2.55-.64-5.1-1-7.64-.06-.54-.13-1.07-.2-1.62q-1-8.06-2.13-16.12-1.78-13.08-3.47-26.18c-.06-.47-.11-.94-.18-1.42q-1.07-8.37-2.08-16.75c-.06-.55-.13-1.1-.2-1.68l-1-8c-.11-1-.23-1.93-.34-2.9,0-.43-.11-.85-.16-1.29-.32-2.7-.78-5.34-1.33-8A4.12,4.12,0,0,1,195,135.68Z" transform="translate(-9.1 -51)"/><path class="cls-13" d="M184.11,202.92l2.48,1a11.39,11.39,0,0,1,0,5.71,34.59,34.59,0,0,0-.51,8.38c0,1,0,1.93.06,2.89,0,.42,0,.84,0,1.27-.1,1-.1,1-1.09,2a14.21,14.21,0,0,1-2.47-.49l0-3.09c0-.57,0-1.15,0-1.74a13.36,13.36,0,0,1,.54-3.57,10.75,10.75,0,0,0-1.59-6.87,3.35,3.35,0,0,1,.11-3A31.9,31.9,0,0,1,184.11,202.92Z" transform="translate(-9.1 -51)"/><path class="cls-14" d="M264.7,136.67a5.34,5.34,0,0,1,2.22,4.2,6.14,6.14,0,0,1-2.22,4.2,7.42,7.42,0,0,1-4.45.5,7.09,7.09,0,0,1-3-3c-.19-2-.21-3.12.9-4.89C260.12,135.83,262.21,135.94,264.7,136.67Z" transform="translate(-9.1 -51)"/><path class="cls-3" d="M123.15,188.3a7.21,7.21,0,0,1,1.63,1.27c.07,1.32,0,2.63,0,4-1.73,1.11-2.79,1-4.79.62l-1.57-.3-1.55-.32-1.34-.22-1.19-.21-1.06-.18c-.86-.38-.86-.38-1.47-1.4-.12-.31-.25-.63-.37-1C114.69,187.13,118.69,186.56,123.15,188.3Z" transform="translate(-9.1 -51)"/><path class="cls-15" d="M38.76,99.09c2.35.37,2.35.37,3.46,1.49a4,4,0,0,0,3-1.49,15.2,15.2,0,0,1,2.47.5c.18,2.25.18,2.25-.74,3.36l-.74.59A8.24,8.24,0,0,0,47.66,106c0,.83,0,1.65,0,2.48-2.25.18-2.25.18-3.37-.75L43.7,107a8.48,8.48,0,0,0-2.47,1.49c-.82,0-1.64,0-2.47,0a9.65,9.65,0,0,1-.49-2.48c.48-.5,1-1,1.48-1.48a3.82,3.82,0,0,0-1.48-3A14.21,14.21,0,0,1,38.76,99.09Z" transform="translate(-9.1 -51)"/><path class="cls-9" d="M51.12,128.26a8.88,8.88,0,0,1,3,2.47,9.93,9.93,0,0,1-.5,5,4.94,4.94,0,0,1-4,1.7,4.16,4.16,0,0,1-3.19-1.15,6,6,0,0,1-1.26-5C46.88,128.69,48.05,127.91,51.12,128.26Z" transform="translate(-9.1 -51)"/><path class="cls-16" d="M33.26,207.67a6.22,6.22,0,0,1,3.52,3.16,7.23,7.23,0,0,1,0,3.46,5.49,5.49,0,0,1-2.47,2,7.09,7.09,0,0,1-5-2c-1-.11-1-.11-1.78.74l-.69.74a6.89,6.89,0,0,1-.24-3.68C28,209.82,30.5,207.07,33.26,207.67Z" transform="translate(-9.1 -51)"/><path class="cls-13" d="M173.24,226.65c1.76.34,3.51.72,5.25,1.17l1.41.35a4.91,4.91,0,0,1,2.73,1.94c-.06,2.22-1.21,3.68-2.47,5.44a29.66,29.66,0,0,1-4.51-1.46l-1.31-.5a5,5,0,0,1-2.09-1.51C172.09,230,172.08,228.44,173.24,226.65Z" transform="translate(-9.1 -51)"/><path class="cls-3" d="M102.88,185.8a10.51,10.51,0,0,1,5.59,3.27,4.54,4.54,0,0,1,.89,3.52C109,194,109,194,107.48,195a10,10,0,0,1-5.93-2.06,7.08,7.08,0,0,1-1.49-4.86C100.76,186.49,101.19,186.19,102.88,185.8Z" transform="translate(-9.1 -51)"/><path class="cls-15" d="M186.09,59.54a9.26,9.26,0,0,1,3,3.43,7,7,0,0,1-2.38,4.92,6,6,0,0,1-4.05.55,4.62,4.62,0,0,1-3.21-3.12c-.3-2.17,0-3,1.23-4.79A6.54,6.54,0,0,1,186.09,59.54Zm-3,2.47-1,1a10.21,10.21,0,0,0,.49,2.47,10.93,10.93,0,0,0,2.47.5l1-1a11.26,11.26,0,0,0-.49-2.47A10.91,10.91,0,0,0,183.12,62Z" transform="translate(-9.1 -51)"/><path class="cls-17" d="M46.18,212.8l1,.5a13.79,13.79,0,0,1-.05,9.25,12.32,12.32,0,0,1-7.37,5.58c-.74.06-1.48.08-2.23.09l-1.15,0c-1.07-.11-1.07-.11-2.55-1.1l1.19-.47c6-2.42,6-2.42,9.66-7.56A29.16,29.16,0,0,0,46.18,212.8Z" transform="translate(-9.1 -51)"/><path class="cls-18" d="M123.7,173.07a16.36,16.36,0,0,1,3.06,4.63,4,4,0,0,1-.49,2,4.46,4.46,0,0,1-3-2.72,6.44,6.44,0,0,0-1.88-2.44,9,9,0,0,0-6.18.4,6.76,6.76,0,0,0-3.31,4.27h-1.48c-.49-1.49-.49-1.49.31-3.19,1.37-2.2,2.68-3.5,5.25-4.14C118.79,171.72,121.25,171.65,123.7,173.07Z" transform="translate(-9.1 -51)"/><path class="cls-19" d="M237.51,51.14a17,17,0,0,1,2.47,0c.42.79.83,1.58,1.24,2.37.22.45.46.89.69,1.34a4.5,4.5,0,0,1,.54,2.71l-2.47.5-.49,2.47c-1.25-.62-1.42-1.24-2-2.47L235,61l3,1-.49,1a4.73,4.73,0,0,1-3.37-.55,4.88,4.88,0,0,1-.59-3.9c1.41-2,3.1-2.43,5.44-3V53.11h-3A8.05,8.05,0,0,1,237.51,51.14Z" transform="translate(-9.1 -51)"/><path class="cls-5" d="M150.74,204.86c3.3.52,6,2.59,8.11,5.07a15.53,15.53,0,0,1,3,7.32,5,5,0,0,1-1,2h-1l-.33-1c-1.47-4.35-2.88-8.16-7.15-10.31-.8-.35-1.6-.69-2.41-1q-1-.48-2-1C149,204.89,149,204.89,150.74,204.86Z" transform="translate(-9.1 -51)"/><path class="cls-14" d="M148,66.46A2.72,2.72,0,0,1,149.51,68c.32,3,.32,3-.62,4.29-1.38,1-2.6.92-4.28.85-1-.2-1-.2-2.09-1.25a6.21,6.21,0,0,1,.06-4.39C144.2,65.53,145.73,65.88,148,66.46Z" transform="translate(-9.1 -51)"/><path class="cls-13" d="M143.67,181c2.39.16,4.58.35,6.33,2.1a2.8,2.8,0,0,1-.5,2c-2.16,1.52-3.71,2.4-6.42,2a3.69,3.69,0,0,1-2-1.48,11.15,11.15,0,0,1,0-3.46C142.09,181.16,142.09,181.16,143.67,181Z" transform="translate(-9.1 -51)"/><path class="cls-20" d="M176.2,172.26a7.52,7.52,0,0,1,3,3.46l.57,1a3.17,3.17,0,0,1-.08,2.92,17.15,17.15,0,0,1-4.45-5,8.43,8.43,0,0,0-7.07.31,9.75,9.75,0,0,0-2.81,4.14h-1.49l-.49-1a11.81,11.81,0,0,1,3.71-5.37C169.92,171.51,173.17,171.72,176.2,172.26Z" transform="translate(-9.1 -51)"/><path class="cls-5" d="M193,134.69l2,.49c0,.28,0,.55.07.83.37,3.81.85,7.59,1.35,11.38l.27,2q.6,4.71,1.24,9.41c.11.76.11.76.21,1.54l.39,2.8a52.24,52.24,0,0,1,.43,8.1l-1-.49a18.21,18.21,0,0,1-.48-2.8l-.24-1.79c-.08-.64-.16-1.27-.24-1.93s-.18-1.31-.26-2c-.17-1.32-.35-2.64-.52-4q-.41-3.18-.86-6.35c-.56-4.05-1.09-8.1-1.53-12.16C193.63,138.08,193.38,136.39,193,134.69Z" transform="translate(-9.1 -51)"/><path class="cls-21" d="M150.49,210.83a7.19,7.19,0,0,1,1.49,1.48v1a19.65,19.65,0,0,1-5.07-1.33c-4-1.36-8,.46-11.74,1.82a4.93,4.93,0,0,1,.49-2.47C140.4,208,145.51,208.18,150.49,210.83Z" transform="translate(-9.1 -51)"/><path class="cls-13" d="M136.65,148.53a8.31,8.31,0,0,1,2,1,3.76,3.76,0,0,1,.26,2.9,16.41,16.41,0,0,0-.42,3.2l-.06,1.19-.06,1.24-.06,1.26c-.06,1-.11,2-.16,3.07h-2c-.17-1.5-.33-3-.5-4.48,0-.42-.09-.84-.14-1.27-.53-4.93-.53-4.93-.35-7.11Z" transform="translate(-9.1 -51)"/><path class="cls-9" d="M65,64a5,5,0,0,1,1,4.45,6.32,6.32,0,0,1-2.47,2,5.82,5.82,0,0,1-3.37-1c-1-1.51-.83-2.66-.58-4.39C61.3,63.31,62.69,63.28,65,64Z" transform="translate(-9.1 -51)"/><path class="cls-13" d="M152.47,148.53a8.31,8.31,0,0,1,2,1,3.76,3.76,0,0,1,.26,2.9,16.41,16.41,0,0,0-.42,3.2l-.06,1.19-.06,1.24q0,.62-.06,1.26c-.06,1-.11,2-.15,3.07h-2c-.17-1.51-.33-3-.5-4.51,0-.43-.09-.85-.14-1.29-.66-6.17-.66-6.17.39-7.49Z" transform="translate(-9.1 -51)"/><path class="cls-1" d="M131.21,119.36c.67,2,.12,2.81-.64,4.73-.23.57-.45,1.15-.68,1.73a5.44,5.44,0,0,1-1.64,2.44c-.31,1.17-.57,2.35-.8,3.52-.14.64-.27,1.27-.39,1.93l-.3,1.47h-1.48c-1-2.87.29-6.05,1-8.9l.33-1.39c.57-2.09.79-2.83,2.69-4l1.43-.53Z" transform="translate(-9.1 -51)"/><path class="cls-5" d="M139.62,205.39c-.68,1.35-1.34,1.34-2.75,1.82-4.34,1.69-6.72,4.18-8.62,8.4l-.5,1.15q-.48,1-1,2l-1-1c0-3.33,2.12-6.43,4.29-8.82C132.82,206.44,135.81,204.25,139.62,205.39Z" transform="translate(-9.1 -51)"/><path class="cls-22" d="M289.42,194.51A2.46,2.46,0,0,1,290.9,196a10.93,10.93,0,0,1-.49,3.46c-1.48,1-1.48,1-3,.87A3.54,3.54,0,0,1,285,199a5.48,5.48,0,0,1,.55-3.9A5.28,5.28,0,0,1,289.42,194.51Z" transform="translate(-9.1 -51)"/><path class="cls-14" d="M18.77,118.47c1.7.4,1.7.4,2.69,1.88a6,6,0,0,1-1.11,3.37,3.88,3.88,0,0,1-3.34.59,2.87,2.87,0,0,1-1.48-1.49,10.57,10.57,0,0,1,0-3.46C17,118.37,17,118.37,18.77,118.47Z" transform="translate(-9.1 -51)"/><path class="cls-3" d="M94.13,155.45l1.49.5a8.52,8.52,0,0,1-.28,6.73,4.53,4.53,0,0,0-.22,4.14,5.47,5.47,0,0,1,.16,3.59c-.81,1.08-1.35,1.1-2.63,1.36,0-.28,0-.57.08-.86C93.48,163.19,93.48,163.19,94.13,155.45Z" transform="translate(-9.1 -51)"/><path class="cls-23" d="M163.35,128.26l1.48,1,1-1,1,7.42h3.95v.49H157.91v-1h6.43Z" transform="translate(-9.1 -51)"/><path class="cls-5" d="M132.7,214.29l2,.49c-.3,1.05-.61,2.1-.93,3.16-.16.58-.34,1.16-.51,1.77a4.42,4.42,0,0,1-1.52,2.49,16.94,16.94,0,0,1-2.47,0A31.52,31.52,0,0,1,132.7,214.29Z" transform="translate(-9.1 -51)"/><path class="cls-3" d="M186.09,159.41c1.92.93,1.92.93,2.47,1.48,0,.84,0,1.67,0,2.5,0,.46,0,.91,0,1.38s0,.7,0,1.07h-2c-1.3-1.94-1.1-3.69-1-5.94Z" transform="translate(-9.1 -51)"/><path class="cls-1" d="M148.52,107a16.67,16.67,0,0,1,6.42,2.47l-.49,1.49a8.18,8.18,0,0,1-2,.49v-1l-3.95-.49Z" transform="translate(-9.1 -51)"/><path class="cls-24" d="M162.36,119.86c1.3.65,1.6,1.5,2.15,2.81a31.62,31.62,0,0,1,.82,7.07c-1.89-1.68-3-2.93-3.46-5.43a24.61,24.61,0,0,1,.49-3.46Z" transform="translate(-9.1 -51)"/><path class="cls-3" d="M85.23,235.05c2,2,2,2,2.17,3.71-.27,2.54-.27,2.54-1.18,3.71l-2,.49Z" transform="translate(-9.1 -51)"/><path class="cls-3" d="M121.33,171.77a7.55,7.55,0,0,1,4.88.77c1.33,1.53,1.43,2.67,1.54,4.67l-1.48.49-.58-.92-.78-1.21c-.25-.4-.5-.79-.77-1.2A10.54,10.54,0,0,0,121.33,171.77Z" transform="translate(-9.1 -51)"/><path class="cls-25" d="M153,214.29c2,.66,2.39,1.9,3.3,3.67l.48.9c1.16,2.2,1.16,2.2,1.16,3.34a7.58,7.58,0,0,1-2.47-.5,10.12,10.12,0,0,1-1.39-2.62l-.63-1.45A7.2,7.2,0,0,1,153,214.29Z" transform="translate(-9.1 -51)"/><path class="cls-5" d="M92.16,174.24l2,1a6.16,6.16,0,0,1-.12,4.91l-.87,1H91.66Z" transform="translate(-9.1 -51)"/><path class="cls-3" d="M177.59,171.55a8.33,8.33,0,0,1,4,3.68l-.49,1.48c-2.49-.71-3.41-2-5-4l-1-1C176.2,171.28,176.2,171.28,177.59,171.55Z" transform="translate(-9.1 -51)"/><path class="cls-3" d="M89.19,202.42l2,.5c.3,3.58.3,3.58-1.24,5.43-.4.33-.81.66-1.24,1-.72-1.44-.31-2.45,0-4,.14-.82.14-.82.29-1.65C89,203.27,89.11,202.85,89.19,202.42Z" transform="translate(-9.1 -51)"/><path class="cls-26" d="M126.27,126.78h.49v2.47h1l-1,5.93h-1.48c-.72-1.91-.27-3.37.22-5.31.14-.58.28-1.16.43-1.76C126,127.67,126.15,127.23,126.27,126.78Z" transform="translate(-9.1 -51)"/><path class="cls-27" d="M148,66.46A4.22,4.22,0,0,1,149.51,68v1l-1-.1-1.37-.14-1.35-.14a10.92,10.92,0,0,0-2.17-.11l-.49,1-.5-2C144.37,65.67,145.65,65.86,148,66.46Z" transform="translate(-9.1 -51)"/><path class="cls-3" d="M91.17,183.63c1.48.5,1.48.5,2,1.49.23,3.14.23,3.14-.68,4.42a2.2,2.2,0,0,1-1.79.52Z" transform="translate(-9.1 -51)"/><path class="cls-28" d="M163.35,128.26l1.48,1,1-1,.5,6.43-1.49.49-.74-2.9c-.14-.54-.28-1.08-.42-1.64A7.2,7.2,0,0,1,163.35,128.26Z" transform="translate(-9.1 -51)"/><path class="cls-3" d="M90.18,193.52l2,1c.12,2.78.12,2.78-1,4.45H89.68C89.62,195.19,89.62,195.19,90.18,193.52Z" transform="translate(-9.1 -51)"/><path class="cls-5" d="M173.73,173.75l.5,1.48c-3.17,1.1-3.17,1.1-4.67.55l-.77-.55v-1C170.37,173.44,172,173.72,173.73,173.75Z" transform="translate(-9.1 -51)"/><path class="cls-5" d="M120.34,173.75l.49,2c-.72.11-1.44.22-2.16.31l-1.22.18h-1.07l-1-1v-1A13.53,13.53,0,0,1,120.34,173.75Z" transform="translate(-9.1 -51)"/><path class="cls-29" d="M124.79,134.19a20.16,20.16,0,0,1,3,1l.5,1.49c-1.49,1-1.49,1-2.75.83a8.47,8.47,0,0,1-2.2-.83c0-1,0-1,.74-1.79Z" transform="translate(-9.1 -51)"/><path class="cls-30" d="M44.69,210.83h1c.69,1.37.47,2.39.34,3.92,0,.53-.08,1.05-.12,1.59a4.88,4.88,0,0,1-1.21,2.89Z" transform="translate(-9.1 -51)"/><path class="cls-31" d="M146.54,106.51a5.68,5.68,0,0,1-1.83,2.66c-1.71.46-3-.12-4.6-.68A13.56,13.56,0,0,1,146.54,106.51Z" transform="translate(-9.1 -51)"/><path class="cls-5" d="M167.8,172.76l-2,2.22-1.09,1.25-.92,1h-.49c.24-3.18.24-3.18,1.39-4.45C166,172.16,166.47,172.36,167.8,172.76Z" transform="translate(-9.1 -51)"/><path class="cls-32" d="M130.22,117.39l1.49.49a8.18,8.18,0,0,1,.49,2c-2.84,2-2.84,2-3.95,2A15.65,15.65,0,0,1,130.22,117.39Z" transform="translate(-9.1 -51)"/><path class="cls-3" d="M95.62,146.06h1a7.69,7.69,0,0,1,.49,4l-2,1C95.06,147.17,95.06,147.17,95.62,146.06Z" transform="translate(-9.1 -51)"/><path class="cls-3" d="M126.76,124.8l2.48,1a8.24,8.24,0,0,1-1.49,3.46h-1C126.21,126.47,126.21,126.47,126.76,124.8Z" transform="translate(-9.1 -51)"/><path class="cls-33" d="M164.83,175.23l1.49,1.48-1,2.47h-1.49l-.49-1C163.81,177.19,164.3,176.2,164.83,175.23Z" transform="translate(-9.1 -51)"/><path class="cls-27" d="M23.93,220.71a7.28,7.28,0,0,1,4.45,3.46v1c-2.12-.78-3.12-2.21-4.45-3.95Z" transform="translate(-9.1 -51)"/><path class="cls-10" d="M286,197a16.61,16.61,0,0,1,2,1l-.5,2.47A16.62,16.62,0,0,1,285,199v-1.48Z" transform="translate(-9.1 -51)"/><path class="cls-3" d="M199.44,246.92l.49,1.48H195C196.27,246.48,197.31,246.07,199.44,246.92Z" transform="translate(-9.1 -51)"/><path class="cls-33" d="M123.8,175.72l1,1h1.48l.49,2.47a3.73,3.73,0,0,1-2.47-.49c-.35-.81-.69-1.64-1-2.47Z" transform="translate(-9.1 -51)"/></svg>