<?xml version="1.0" encoding="utf-8"?>
<!-- Generator: Adobe Illustrator 24.2.1, SVG Export Plug-In . SVG Version: 6.00 Build 0)  -->
<svg version="1.1" id="Layer_1" xmlns="http://www.w3.org/2000/svg" xmlns:xlink="http://www.w3.org/1999/xlink" x="0px" y="0px"
	 viewBox="0 0 612 512" style="enable-background:new 0 0 612 512;" xml:space="preserve">
<style type="text/css">
	.st0{fill:#FFCEBF;}
	.st1{fill:#01516A;}
	.st2{fill:#014752;}
	.st3{fill:#FFB19F;}
	.st4{fill:#FFB09E;}
	.st5{fill:#FFB09F;}
	.st6{fill:#B2F2A6;}
	.st7{fill:#A8EBA2;}
	.st8{fill:#F8FAFB;}
</style>
<path class="st0" d="M384.7,298.7c3.6-6.2,8-11,16.1-12.5c2.8,2.1,2.5,4.7,2.5,7.2c0.1,11,0,22,0,32.9c0,3,0.6,5.7,2.5,8.1
	c2.2,2.8,5.2,4.5,9.2,3.8c4.2-0.7,7.4-3.7,7.6-7.6c0.2-4.6,1.4-9.1,1.3-13.8c0-1.9,0-3.8,1.7-5.7c4.4-4.9,8.6-9.4,16.1-10.5
	c2.5,1.6,2.5,3.9,2.5,6.1c0,35.8,0.4,71.7-0.2,107.5c-0.3,18.7-7.8,34.8-25.3,46.5c-7.6,5.1-15.9,7.7-25.8,8
	c-20.2,0.2-40,0.2-60.2,0.2c0.4-1.5-0.7-1.6-2-1.9c-16.4-4.1-26.6-14.4-34.9-27c-10.5-15.8-21.5-31.3-32.3-46.9
	c-12.3-17.9-24.6-35.7-36.9-53.9c5.7-3.5,11.7-2.3,17.4-0.5c8.2,2.5,14.2,8,20.6,12.9c3,2.3,5.9,4.6,9,6.8
	c6.1,4.3,11.8,4.6,18.4,1.1c2-1.1,3.7-2.6,6.6-2.7c5.1,0.9,5.7-1.7,5.7-4.8c0-11.8,0-23.6,0-35.3c0-20.4,0-40.8,0-61.6
	c-1.5-2.6-1-5.1-1-7.4c0-6.5-0.3-13,0.1-19.5c0.4-7,4.2-12.3,11.3-15.6c2.1-1,4.3-1.6,7.1-0.5c2.4,2.6,2,5.4,2,8.1
	c0,34.8,0,69.5,0,104.3c0,1.9-0.1,3.8,0.1,5.7c0.4,4.2,3.5,7.3,7.9,8c3.6,0.6,8.1-1.7,10-5.2c1.1-2.1,1.4-4.3,1.4-6.5
	c0-7.3,0-14.7,0-22c0-2.2-0.1-4.5,1.8-6.7c4-5.6,8.1-10.5,16.1-11.6c2.8,2,2.5,4.7,2.5,7.2c0.1,11.5,0,22.9,0,34.4
	c0,3.5,0.8,6.8,4.2,8.8c2.7,1.6,5.8,2.5,9.1,1.1c4-1.7,5.8-4.7,6-8.4c0.3-7.8,0.1-15.6,0.1-23.4
	C382.9,303.5,382.6,301.1,384.7,298.7z"/>
<path class="st1" d="M271.3,156.9c-9.2-21.7-6.3-41.7,7.8-60.2c7.4-9.7,17.4-16.1,29.3-19.9c1.2-0.4,2.8-0.3,3.5-2.1
	c0.7-0.3,1.4-0.3,2.4-0.3c1.6,1.7,3.6,1.4,5.3,1.9c23.9,7.4,41.1,30.7,41.7,54.9c0.6,25.4-15.6,48.2-38.8,57.4
	c-2.3,0.9-4.7,1.4-7.3,2.4c-10.1-0.5-18.1-5-25.5-10.5c-7.1-5.2-13-11.5-17.1-19.2C272,160,271.1,158.7,271.3,156.9z"/>
<path class="st2" d="M304.9,188.7c10.2-4,19.8-8.7,27.5-16.6c10.7-10.9,16.2-23.5,16.6-38.4c0.4-16.8-6-30.8-18.4-42.5
	c-6.4-6-14-10.3-22.6-12.9c-1.3-0.4-3.2-0.2-3.3-2.6c8.8-0.3,17.5-0.3,26.7-0.3c0.3,1.4,1.4,1.5,2.4,1.8c23.6,6.7,37.5,22,42.8,44.6
	c2.6,11.3,1.3,22.7-4,33.7c0.7,2-0.1,3.4-0.9,4.8c-10.2,17.4-25.5,27.8-46.2,30.7c-5.2,0.7-10.4,1-15.6,0
	C308.2,190.6,306.3,190.5,304.9,188.7z"/>
<path class="st3" d="M393,469c7.9-2.5,16.5-4.4,23.9-9.3c14.2-9.4,22.2-21.8,24-37.3c2.5-22.1,0.7-44.2,1-66.4
	c0.3-18.2,0.1-36.3,0.1-55c14.4-2.1,24.1,7.5,23.9,19.5c-0.6,32.7,0.1,65.4-0.3,98.1c-0.2,12.4-4.8,23.6-14.3,33.2
	c-7.4,7.4-15.9,12.8-26.7,15.4c-0.6,0.1-1,0.8-1.2,1.5C413.7,469,403.6,469,393,469z"/>
<path class="st3" d="M298.8,356.6c-2.1,1.8-4.3,3.6-6.7,4.8c-7.6,3.8-14,2.9-20.6-2.3c-5.5-4.3-11.1-8.5-16.6-12.8
	c-7.9-6.1-17-8.5-27.9-7.5c-2.7-0.7-3.7-2.9-4.2-4.3c-0.8-2-1.9-4.7,2-6.4c12.2-5.3,24.2-6.8,36.2,0.1c6.3,3.6,11.3,8.5,17,12.6
	C284.9,346,291.7,351.2,298.8,356.6z"/>
<path class="st4" d="M321.4,212.9c15.7-1,23.7,5.8,23.7,19.8c0,7,0,14,0.1,21.5c0,14.5,0,28.5,0,42.9c0,10.8-0.1,21.1,0,31.5
	c0,5-2.7,8.5-7.3,10.9c-4,2-7.9,1.2-11.6-1c-3.8-2.3-4.8-5.5-4.8-9.5C321.5,290.4,321.4,251.9,321.4,212.9z"/>
<path class="st3" d="M426,310.5c0.2,6.3-0.7,12.1-1,18c-0.4,7.1-4.6,12-11.2,12.2c-6.6,0.2-12.5-5.6-12.5-12.5
	c-0.1-13.7,0-27.3,0-41.4c9.4-1.5,17.3,0.6,22.3,8.3C426.5,299.7,426,304.9,426,310.5z"/>
<path class="st5" d="M384.9,298.2c0.1,10.3,0.1,20.4,0.1,30.4c0,7.1-4.9,12.2-11.4,12.1c-7.3,0-12.2-4.8-12.2-12
	c-0.1-13.8,0-27.7,0-42C372.6,284.5,379.9,289.2,384.9,298.2z"/>
<path class="st6" d="M511.9,94.6c-8.2,0.7-16.7-0.2-25.5,1.1c-2.3,0.4-4-0.5-6.1-1.3C490.6,94.2,501.1,94.2,511.9,94.6z"/>
<path class="st7" d="M540.9,125.6c-1.4-1.2-0.8-3.1-0.9-5.3C541.9,121.4,540.6,123.4,540.9,125.6z"/>
<path class="st7" d="M540.9,262.6c-1.2-1-1.1-2.5-0.3-4.3C540.9,259.4,540.9,260.8,540.9,262.6z"/>
<path class="st8" d="M340.1,119.2c4.6,1.3,6.3,4.3,5.5,8.4c-0.8,4-3.9,5.5-7.8,5.5c-4.4,0-8.9,0.1-13.3,0c-2.2-0.1-3,0.6-2.9,2.8
	c0.2,4.1,0.1,8.2,0,12.3c-0.1,5.8-2.7,9.1-7.3,9c-4.5-0.1-7-3.3-7.1-9.3c0-4.1-0.1-8.2,0-12.3c0.1-2-0.6-2.6-2.6-2.6
	c-4.6,0.1-9.2,0.1-13.8,0c-4.9-0.1-7.8-2.8-7.8-7c0-4.1,2.6-6.8,7.3-7c4.6-0.2,9.2-0.2,13.7-0.1c2.4,0.1,3.2-0.7,3.1-3.1
	c-0.2-4.4-0.1-8.8,0-13.2c0.1-4.8,2.9-7.8,7.1-7.8c4.2,0,7,2.9,7.2,7.7c0.1,4.1,0.2,8.2,0,12.3c-0.2,3.1,0.6,4.3,4,4.1
	C330.2,118.7,335,119,340.1,119.2z"/>
</svg>
