<?xml version="1.0" encoding="utf-8"?>
<!-- Generator: Adobe Illustrator 24.2.1, SVG Export Plug-In . SVG Version: 6.00 Build 0)  -->
<svg version="1.1" id="Layer_1" xmlns="http://www.w3.org/2000/svg" xmlns:xlink="http://www.w3.org/1999/xlink" x="0px" y="0px"
	 viewBox="0 0 70.89 80.59" style="enable-background:new 0 0 70.89 80.59;" xml:space="preserve">
<style type="text/css">
	.st0{fill:none;}
	.st1{opacity:0.96;fill:url(#SVGID_1_);}
	.st2{fill:#95CD2C;}
	.st3{fill:url(#SVGID_2_);}
	.st4{fill:url(#SVGID_3_);}
	.st5{fill:url(#SVGID_4_);}
	.st6{fill:url(#SVGID_5_);}
	.st7{fill:url(#SVGID_6_);}
	.st8{fill:url(#SVGID_7_);}
	.st9{fill:url(#SVGID_8_);}
</style>
<rect x="-141.88" y="-138.92" class="st0" width="360" height="360"/>
<g>
	<linearGradient id="SVGID_1_" gradientUnits="userSpaceOnUse" x1="55.2239" y1="42.7367" x2="29.7588" y2="48.4807">
		<stop  offset="0" style="stop-color:#FFCB30;stop-opacity:0"/>
		<stop  offset="1" style="stop-color:#44B666"/>
	</linearGradient>
	<polygon class="st1" points="58.29,27.34 58.29,45.67 43.09,54.4 26.48,63.93 26.48,63.92 26.74,63.77 26.74,44.23 	"/>
	<polygon class="st2" points="26.48,63.92 25.14,63.14 12.15,55.59 12.15,35.32 26.67,44.27 26.74,44.32 26.74,63.77 	"/>
	<linearGradient id="SVGID_2_" gradientUnits="userSpaceOnUse" x1="26.7439" y1="63.9747" x2="63.9247" y2="63.9747">
		<stop  offset="0" style="stop-color:#FFCB30"/>
		<stop  offset="1" style="stop-color:#24D4F7"/>
	</linearGradient>
	<polygon class="st3" points="63.92,72.49 38.7,72.58 26.74,63.77 41.39,55.37 	"/>
	<linearGradient id="SVGID_3_" gradientUnits="userSpaceOnUse" x1="22.0814" y1="25.8372" x2="60.8447" y2="96.3436">
		<stop  offset="0" style="stop-color:#FFCB30"/>
		<stop  offset="0.1816" style="stop-color:#F6CB38"/>
	</linearGradient>
	<polygon class="st4" points="63.92,72.49 38.7,72.58 26.74,63.77 41.39,55.37 	"/>
	<linearGradient id="SVGID_4_" gradientUnits="userSpaceOnUse" x1="20.5997" y1="14.0393" x2="15.6214" y2="102.8833">
		<stop  offset="0" style="stop-color:#FFCB30"/>
		<stop  offset="1" style="stop-color:#F5CB3A"/>
	</linearGradient>
	<polygon class="st5" points="11.41,18.66 11.41,72.58 26.74,63.77 26.74,9.59 	"/>
	<linearGradient id="SVGID_5_" gradientUnits="userSpaceOnUse" x1="26.7448" y1="27.6305" x2="58.2914" y2="27.6305">
		<stop  offset="0" style="stop-color:#FFCB30"/>
		<stop  offset="1" style="stop-color:#24D4F7"/>
	</linearGradient>
	<polygon class="st6" points="26.74,9.59 58.29,27.34 58.29,45.67 26.74,28.35 	"/>
	<linearGradient id="SVGID_6_" gradientUnits="userSpaceOnUse" x1="45.6403" y1="29.0276" x2="16.2937" y2="15.8989">
		<stop  offset="0" style="stop-color:#009DEA"/>
		<stop  offset="1" style="stop-color:#FFCB30;stop-opacity:0"/>
	</linearGradient>
	<polygon class="st7" points="26.74,9.59 58.29,27.34 58.29,45.67 26.74,28.35 	"/>
	<linearGradient id="SVGID_7_" gradientUnits="userSpaceOnUse" x1="26.4808" y1="45.6326" x2="58.2897" y2="45.6326">
		<stop  offset="0" style="stop-color:#FFCB30"/>
		<stop  offset="1" style="stop-color:#24D4F7"/>
	</linearGradient>
	<polygon class="st8" points="58.29,27.34 58.29,45.67 43.09,54.4 26.48,63.93 26.48,63.92 26.74,63.77 26.74,44.23 	"/>
	<linearGradient id="SVGID_8_" gradientUnits="userSpaceOnUse" x1="45.6484" y1="54.8373" x2="25.475" y2="63.6526">
		<stop  offset="0" style="stop-color:#FFCB30;stop-opacity:0"/>
		<stop  offset="1" style="stop-color:#44B666"/>
	</linearGradient>
	<polygon class="st9" points="26.74,63.77 43.61,57.05 41.39,55.37 	"/>
</g>
<g>
</g>
<g>
</g>
<g>
</g>
<g>
</g>
<g>
</g>
<g>
</g>
<g>
</g>
<g>
</g>
<g>
</g>
<g>
</g>
<g>
</g>
<g>
</g>
<g>
</g>
<g>
</g>
<g>
</g>
</svg>
